Coordinates
version=1
nRows=10
nColumns=40
inDegrees=yes

Units are S.I. units (second, meters, Newtons, ...)
Angles are in degrees.

endheader
time	pelvis_tilt	pelvis_list	pelvis_rotation	pelvis_tx	pelvis_ty	pelvis_tz	hip_flexion_r	hip_adduction_r	hip_rotation_r	knee_angle_r	knee_angle_r_beta	ankle_angle_r	subtalar_angle_r	mtp_angle_r	hip_flexion_l	hip_adduction_l	hip_rotation_l	knee_angle_l	knee_angle_l_beta	ankle_angle_l	subtalar_angle_l	mtp_angle_l	lumbar_extension	lumbar_bending	lumbar_rotation	arm_flex_r	arm_add_r	arm_rot_r	elbow_flex_r	pro_sup_r	wrist_flex_r	wrist_dev_r	arm_flex_l	arm_add_l	arm_rot_l	elbow_flex_l	pro_sup_l	wrist_flex_l	wrist_dev_l
     12.47000000	     -3.67663075	     -7.31986213	      2.56814137	      0.96350341	      0.91754772	      0.48909716	     -1.47306160	      6.13598097	    -16.61954430	     10.14436002	     10.14436002	     17.49119342	      6.28688037	     -4.67102321	     33.77491148	    -10.92237369	     -2.87157896	     20.13755932	     20.13755932	      4.38644070	     -8.44542644	     10.99191227	    -10.72348076	      8.58449669	      4.17609294	     43.84739773	    -11.86198268	      0.79542278	     78.70941513	     44.71179876	      0.00000000	      0.00000000	    -23.70024878	     -8.94015321	     -0.63104686	     25.15626237	     46.13449765	      0.00000000	      0.00000000
     12.48157143	     -3.63505935	     -7.14467549	      2.46397186	      0.96504070	      0.91614827	      0.48718165	     -2.04556630	      5.79176697	    -16.36169865	     10.48020117	     10.48020117	     18.07355042	      6.09008043	     -4.61627692	     33.26110024	    -10.57652696	     -3.19315159	     20.60966731	     20.60966731	      3.88079377	     -9.03295076	     10.72397776	    -10.47399619	      8.32893033	      4.12711122	     44.52610339	    -11.66218130	      0.78105298	     79.75828560	     44.68532169	      0.00000000	      0.00000000	    -24.13423135	     -8.79838141	     -0.53723762	     25.12741278	     46.10739293	      0.00000000	      0.00000000
     12.49314286	     -3.70889869	     -6.98661763	      2.38030500	      0.96651203	      0.91460415	      0.48507813	     -2.28014577	      5.40157612	    -16.03333360	     11.22553696	     11.22553696	     18.75597082	      5.56142793	     -4.24905434	     32.86596573	    -10.16478182	     -3.12306808	     21.08761784	     21.08761784	      3.06526109	    -10.13470135	      9.94311392	    -10.12173630	      8.11879747	      3.76901985	     44.79443842	    -11.32310785	      0.90718608	     81.97545751	     44.61881132	      0.00000000	      0.00000000	    -24.66636883	     -8.61537019	     -0.44423565	     25.31707265	     46.07597377	      0.00000000	      0.00000000
     12.50471429	     -3.73587850	     -6.79138677	      2.31712749	      0.96797382	      0.91327548	      0.48287289	     -2.57695113	      4.97406774	    -15.68056046	     11.99027482	     11.99027482	     19.96327134	      5.20034648	     -2.20663100	     32.35170813	     -9.70383853	     -2.83963890	     21.38723335	     21.38723335	      1.07408206	    -11.69399012	      6.46424748	     -9.95353706	      7.81274036	      4.57130035	     44.01056968	    -12.37206633	      0.58814515	     85.97967373	     44.54948461	      0.00000000	      0.00000000	    -24.68896966	     -8.84920603	     -0.14339574	     26.12791319	     46.01139648	      0.00000000	      0.00000000
     12.51628571	     -3.67129950	     -6.57649945	      2.29544036	      0.96923585	      0.91218052	      0.48056084	     -2.91559572	      4.50364558	    -15.45242935	     12.76880605	     12.76880605	     20.42395065	      4.74656673	     -2.24248915	     32.10240275	     -9.32948506	     -2.72664386	     22.40782202	     22.40782202	      0.86827318	    -12.35447966	      6.16242531	     -9.83509611	      7.52749426	      4.22368041	     44.44240089	    -12.07003342	      0.63021455	     86.95652816	     44.52461129	      0.00000000	      0.00000000	    -24.75736780	     -8.66937755	     -0.05755113	     26.03281958	     45.99608198	      0.00000000	      0.00000000
     12.52785714	     -3.82689262	     -6.30223506	      2.30785011	      0.97024654	      0.91103138	      0.47808130	     -2.77549177	      3.92494513	    -15.08120050	     13.97939381	     13.97939381	     20.93929453	      3.80751251	     -1.90077475	     32.08374046	     -8.81857433	     -2.37585288	     23.34277206	     23.34277206	      0.58135215	    -13.30874031	      5.53439495	     -9.52649814	      7.14559667	      3.96886692	     44.18092388	    -12.13599465	      0.74143515	     89.24669352	     44.46451347	      0.00000000	      0.00000000	    -24.54706270	     -8.51375353	     -0.03461368	     26.07604203	     45.99702830	      0.00000000	      0.00000000
     12.53942857	     -3.65380685	     -6.10023075	      2.36587515	      0.97122724	      0.91058955	      0.47553945	     -3.09961109	      3.43440764	    -14.89641798	     14.95220016	     14.95220016	     21.23024980	      3.32073827	     -1.90043964	     31.86855320	     -8.47006432	     -2.11003241	     24.53550918	     24.53550918	      0.78873790	    -13.81200587	      5.09861941	     -9.62560558	      6.88875381	      3.79375600	     44.21605047	    -12.19825355	      0.71880073	     90.30057750	     44.43884400	      0.00000000	      0.00000000	    -24.14076015	     -8.40394675	     -0.03141621	     26.13608596	     46.00467275	      0.00000000	      0.00000000
     12.55100000	     -3.69218114	     -5.87644307	      2.44540425	      0.97190059	      0.91009800	      0.47287988	     -2.87082184	      2.84251681	    -14.67768799	     16.51123957	     16.51123957	     21.50387088	      2.47444871	     -1.97006629	     31.87257316	     -8.07795359	     -1.87420996	     25.64902453	     25.64902453	      1.18351044	    -14.24790765	      4.68577251	     -9.52897823	      6.58873588	      3.59313809	     43.85890506	    -12.36527359	      0.73934661	     92.10698664	     44.38986181	      0.00000000	      0.00000000	    -23.49648902	     -8.25189891	     -0.07482310	     26.19354054	     46.02533929	      0.00000000	      0.00000000
     12.56257143	     -3.46892962	     -5.68033656	      2.58659882	      0.97275101	      0.91045950	      0.47012507	     -3.09842522	      2.31713427	    -14.61308640	     17.72701907	     17.72701907	     21.48294503	      1.92606409	     -2.09495013	     31.51784749	     -7.71803756	     -1.61708881	     26.62962538	     26.62962538	      1.79188429	    -14.55047696	      4.32393965	     -9.71089154	      6.29354339	      3.28441613	     43.35661462	    -12.50261806	      0.75281387	     92.86806928	     44.36811287	      0.00000000	      0.00000000	    -22.75583887	     -8.20564968	     -0.10013363	     26.33140329	     46.04373466	      0.00000000	      0.00000000
     12.57414286	     -3.63508511	     -5.44724077	      2.63601540	      0.97305013	      0.91048250	      0.46736825	     -2.35378243	      1.62808981	    -14.21827628	     19.89870635	     19.89870635	     21.32658673	      0.71100860	     -2.73912091	     31.55898562	     -7.32849813	     -1.51118870	     27.53546110	     27.53546110	      2.79148816	    -14.66972434	      4.75545968	     -9.65454943	      5.99895724	      4.22281889	     41.58156995	    -14.09215388	      0.19336950	     97.15701371	     44.28205348	      0.00000000	      0.00000000	    -21.04227505	     -8.28683421	     -0.51491196	     25.96546517	     46.15044813	      0.00000000	      0.00000000
